<svg width="153" height="45" viewBox="0 0 153 45" fill="none" xmlns="http://www.w3.org/2000/svg">
<path fill-rule="evenodd" clip-rule="evenodd" d="M86.6933 35.5038H77.0542V10.391H96.9354V19.4775H86.6933V20.7805H96.1986V29.4617H86.6933V35.5038ZM85.1895 27.9579H94.6948V22.2842H85.1895V17.9737H95.4316V11.8948H78.558V34H85.1895V27.9579Z" fill="black"/>
<path fill-rule="evenodd" clip-rule="evenodd" d="M62.8005 34L59.0426 27.1842H56.611V34H49.9795V11.8948H60.1479C65.9321 11.8948 69.211 14.3632 69.211 19.6684C69.211 22.2775 68.3044 24.1707 66.7023 25.4058C66.3136 25.7055 65.8839 25.9665 65.4163 26.1895L70.5005 33.5948V34H62.8005ZM67.5545 26.647C68.3283 26.0632 68.9873 25.3466 69.5012 24.4901C70.3163 23.1316 70.7148 21.5076 70.7148 19.6684C70.7148 16.6914 69.7804 14.271 67.8088 12.6349C65.8888 11.0415 63.2197 10.391 60.1479 10.391H48.4757V35.5038H58.1148V28.688H58.1545L61.9124 35.5038H72.0043V33.1282L67.5545 26.647ZM56.611 17.4211H59.6689C61.7321 17.4211 62.6532 18.1211 62.6532 19.8895C62.6532 21.6211 61.9532 22.3579 59.7795 22.3579H56.611V17.4211ZM58.1148 20.8542H59.7795C60.7713 20.8542 61.0093 20.6698 61.0274 20.6536C61.0291 20.6521 61.0308 20.6504 61.033 20.6477C61.0347 20.6456 61.0367 20.6428 61.0392 20.6388C61.0456 20.6285 61.0602 20.6019 61.077 20.5492C61.1134 20.4351 61.1494 20.2319 61.1494 19.8895C61.1494 19.2735 61.0003 19.169 60.988 19.1604C60.9877 19.1602 60.9881 19.1605 60.988 19.1604C60.907 19.0947 60.5924 18.9248 59.6689 18.9248H58.1148V20.8542Z" fill="black"/>
<path fill-rule="evenodd" clip-rule="evenodd" d="M35.2297 34L34.1613 29.9842H26.756L25.6507 34H18.8349L25.9823 11.8948H35.1928L42.3402 34H35.2297ZM27.9018 31.488L26.7965 35.5038H16.7683L24.8881 10.391H36.287L44.4068 35.5038H34.0737L33.0053 31.488H27.9018ZM28.856 22.5053L28.0823 25.2316H32.8718L32.1349 22.5053C31.8335 21.3747 31.5491 20.2613 31.2702 19.1416C31.1567 18.6858 31.044 18.229 30.9315 17.7696C30.9151 17.7026 30.8987 17.6355 30.8823 17.5684H30.1086C30.0922 17.6355 30.0758 17.7026 30.0594 17.7696C29.9469 18.229 29.8343 18.6858 29.7207 19.1416C29.4418 20.2613 29.1575 21.3747 28.856 22.5053ZM30.4955 22.1875C30.434 22.4219 30.3719 22.6569 30.309 22.8927L30.3059 22.9043L30.0722 23.7278H30.9076L30.6819 22.8927C30.6191 22.6569 30.5569 22.4219 30.4955 22.1875Z" fill="black"/>
<path fill-rule="evenodd" clip-rule="evenodd" d="M3.53119 10.391H13.1703V26.7421C13.1703 29.2193 12.5993 31.3754 11.2777 33.107C9.81446 35.0244 7.45933 35.7985 4.66652 35.7985C3.25121 35.7985 2.196 35.6349 1.31413 35.4815L0 35.253L0.454169 26.6238L2.12786 26.9191C2.74499 27.028 3.18669 27.0805 3.45073 27.0805C3.46494 27.0805 3.47727 27.08 3.48786 27.0794C3.48989 27.0733 3.49201 27.0666 3.49418 27.0592C3.51293 26.995 3.53119 26.891 3.53119 26.7421V10.391ZM3.36273 28.5831C3.39278 28.5839 3.42212 28.5842 3.45073 28.5842C4.51916 28.5842 5.03495 27.8105 5.03495 26.7421V11.8948H11.6665V26.7421C11.6665 28.9895 11.1507 30.7948 10.0823 32.1948C9.01389 33.5948 7.20863 34.2948 4.66652 34.2948C3.37705 34.2948 2.41916 34.1474 1.57179 34L1.86652 28.4C2.44862 28.5027 2.96708 28.5736 3.36273 28.5831Z" fill="black"/>
<circle cx="115.743" cy="22.5504" r="2.80833" transform="rotate(15 115.743 22.5504)" fill="#D2F016" stroke="black" stroke-width="0.75188"/>
<circle cx="118.989" cy="42.0258" r="1.75355" transform="rotate(15 118.989 42.0258)" fill="#D2F016" stroke="black" stroke-width="0.75188"/>
<circle cx="123.421" cy="40.5019" r="2.74628" transform="rotate(15 123.421 40.5019)" fill="#D2F016" stroke="black" stroke-width="0.75188"/>
<path d="M116.643 41.598C116.236 43.116 114.676 44.0168 113.158 43.6101C111.64 43.2033 110.739 41.6431 111.146 40.1251C111.552 38.6072 113.113 37.7064 114.631 38.1131C116.148 38.5198 117.049 40.0801 116.643 41.598Z" fill="#D2F016" stroke="black" stroke-width="0.75188"/>
<path d="M108.771 41.7649C108.52 42.7004 107.559 43.2556 106.623 43.0049C105.688 42.7542 105.133 41.7927 105.383 40.8572C105.634 39.9218 106.596 39.3666 107.531 39.6173C108.467 39.8679 109.022 40.8295 108.771 41.7649Z" fill="#D2F016" stroke="black" stroke-width="0.75188"/>
<path d="M120.536 9.59133C120.069 11.3351 118.277 12.3699 116.533 11.9027C114.789 11.4354 113.755 9.64307 114.222 7.89932C114.689 6.15557 116.481 5.12075 118.225 5.58799C119.969 6.05523 121.004 7.84758 120.536 9.59133Z" fill="#D2F016" stroke="black" stroke-width="0.75188"/>
<path fill-rule="evenodd" clip-rule="evenodd" d="M105.11 17.2417H126.186V13.3503C126.186 12.9802 125.885 12.6791 125.515 12.6791H105.782C105.411 12.6791 105.11 12.9802 105.11 13.3503V17.2417ZM103.761 18.0029C103.765 18.0353 103.771 18.067 103.779 18.0979L104.255 19.9692L103.069 24.9868C102.894 25.7264 102.805 26.4865 102.805 27.2463V39.2168C102.805 40.7072 103.385 42.1084 104.439 43.1621C105.493 44.2159 106.894 44.7963 108.385 44.7963H122.912C124.402 44.7963 125.803 44.2159 126.857 43.1621C127.911 42.1084 128.492 40.7072 128.492 39.2168V27.2463C128.492 26.4865 128.403 25.7264 128.228 24.9869L127.041 19.9692L127.516 18.1009C127.53 18.0528 127.538 18.0025 127.54 17.9507C127.541 17.9387 127.541 17.9266 127.541 17.9145C127.54 17.767 127.491 17.6221 127.398 17.5032C127.27 17.3382 127.073 17.2417 126.864 17.2417H104.433C104.224 17.2417 104.026 17.3382 103.898 17.5032C103.807 17.6207 103.758 17.7635 103.756 17.9092V13.3503C103.756 12.2331 104.665 11.3244 105.782 11.3244H125.515C126.632 11.3244 127.541 12.2331 127.541 13.3503V17.9145M103.761 18.0029C103.757 17.9717 103.755 17.9404 103.756 17.9092ZM125.808 20.6408H105.489L104.387 25.2986C104.236 25.9362 104.16 26.5915 104.16 27.2463V39.2168C104.16 41.5464 106.055 43.4416 108.385 43.4416H122.912C125.242 43.4416 127.137 41.5464 127.137 39.2168V27.2463C127.137 26.5915 127.06 25.9362 126.91 25.2986L125.808 20.6408ZM125.817 19.286L125.992 18.5964H105.304L105.479 19.286H125.817Z" fill="#5E5CE6"/>
<path d="M110.773 4.00715C110.439 5.25524 109.156 5.99591 107.908 5.66149C106.66 5.32706 105.919 4.04419 106.253 2.7961C106.588 1.54801 107.871 0.80734 109.119 1.14176C110.367 1.47619 111.108 2.75907 110.773 4.00715Z" fill="#D2F016" stroke="black" stroke-width="0.75188"/>
<path d="M85.1895 27.9579V34H78.558V11.8947H95.4316V17.9737H85.1895V22.2842H94.6948V27.9579H85.1895Z" fill="#D2F016"/>
<path d="M59.0426 27.1842H56.611V34H49.9794V11.8947H60.1478C65.9321 11.8947 69.211 14.3632 69.211 19.6684C69.211 22.9105 67.811 25.0474 65.4163 26.1895L70.5005 33.5947V34H62.8005L59.0426 27.1842ZM59.6689 17.4211H56.611V22.3579H59.7794C61.9531 22.3579 62.6531 21.6211 62.6531 19.8895C62.6531 18.1211 61.7321 17.4211 59.6689 17.4211Z" fill="#D2F016"/>
<path d="M34.1612 29.9842H26.7559L25.6507 34H18.8349L25.9823 11.8947H35.1928L42.3402 34H35.2296L34.1612 29.9842ZM30.8823 17.5684H30.1086C29.7033 19.2263 29.2981 20.8474 28.8559 22.5053L28.0823 25.2316H32.8717L32.1349 22.5053C31.6928 20.8474 31.2875 19.2263 30.8823 17.5684Z" fill="#D2F016"/>
<path d="M5.03494 26.7421V11.8947H11.6665V26.7421C11.6665 28.9895 11.1507 30.7947 10.0823 32.1947C9.01388 33.5947 7.20862 34.2947 4.66651 34.2947C3.37704 34.2947 2.41915 34.1474 1.57178 34L1.86651 28.4C2.49283 28.5105 3.04546 28.5842 3.45072 28.5842C4.51915 28.5842 5.03494 27.8105 5.03494 26.7421Z" fill="#D2F016"/>
<path d="M135.002 11.8947H141.634V28.1053H150.55V34H135.002V11.8947Z" fill="#D2F016"/>
<path fill-rule="evenodd" clip-rule="evenodd" d="M133.498 10.391H143.138V26.6015H152.053V35.5038H133.498V10.391ZM141.634 28.1053V11.8948H135.002V34H150.55V28.1053H141.634Z" fill="black"/>
</svg>
