<svg width="30" height="16" viewBox="0 0 30 16" fill="none" xmlns="http://www.w3.org/2000/svg">
<path d="M15 11.7125L26.025 0.687497C26.4 0.312497 26.8438 0.131247 27.3563 0.143747C27.8688 0.156247 28.3125 0.349998 28.6875 0.724997C29.0625 1.1 29.25 1.54375 29.25 2.05625C29.25 2.56875 29.0625 3.0125 28.6875 3.3875L17.1375 14.9C16.8375 15.2 16.5 15.425 16.125 15.575C15.75 15.725 15.375 15.8 15 15.8C14.625 15.8 14.25 15.725 13.875 15.575C13.5 15.425 13.1625 15.2 12.8625 14.9L1.3125 3.35C0.937502 2.975 0.756252 2.5375 0.768751 2.0375C0.781252 1.5375 0.975002 1.1 1.35 0.724996C1.725 0.349996 2.16875 0.162496 2.68125 0.162496C3.19375 0.162496 3.6375 0.349996 4.0125 0.724996L15 11.7125Z" fill="black"/>
</svg>
